<svg viewBox="0 0 369.283 444.406" xmlns="http://www.w3.org/2000/svg"><path d="m328.003 237.863c-8.07-23.078-20.896-43.94-37.288-61.419 2.577.469 5.099.791 7.465.791 16.452 0 27.082-11.269 27.082-28.709v-10.792c0-6.697-1.788-12.8-5.207-18.094 3.661-4.73 5.207-10.636 5.207-16.363 0-1.626-.043-3.204-.086-4.875a231.19 231.19 0 0 1 -.104-6.484c0-10.289-6.501-31.226-31.109-36.825-18.38-4.184-50.882-9.704-69.97-11.256l-8.985-.731c-9.469-1.27-26.588-2.044-38.736-2.137l-8.948-.068-3.088 8.396c-2.413 6.557-5.9 15.924-9.315 25.062-4.028-9.516-8.042-19.099-10.328-24.844l-3.347-8.401-9.035.399c-12.587.558-24.407 1.925-32.228 2.83-2.16.25-4.059.47-5.642.634l-11.407 1.186v11.466c0 9.972-.066 41.448-.118 65.127-8.759 1.18-19.631 3.021-28.794 4.752v-76.614l-15.698 3.781-25.946 6.247-9.742 2.347v122.399l16.281-4.748c5.319-1.552 11.99-3.211 19.271-4.825-16.598 17.605-29.563 38.672-37.682 61.989l-.506 1.361.953.869 163.191 163.191 163.416-163.415.822-.885z" fill="#fff"/><path d="m164.144 330.658c-51.119 0-92.706-41.588-92.706-92.705 0-51.119 41.587-92.707 92.706-92.707s92.707 41.588 92.707 92.707c0 51.117-41.588 92.705-92.707 92.705m0-172.692c-44.105 0-79.986 35.882-79.986 79.987 0 44.104 35.881 79.986 79.986 79.986s79.987-35.883 79.987-79.986c0-44.104-35.882-79.987-79.987-79.987"/><path d="m164.144 342.565c-26.297 0-50.343-9.757-68.763-25.811l68.763 68.764 68.761-68.762c-18.419 16.053-42.465 25.809-68.761 25.809"/><path d="m268.951 237.758c0 26.297-9.756 50.342-25.81 68.763l70.581-70.583c-20.315-51.264-66.291-89.645-121.99-99.273 44.445 12.143 77.219 52.853 77.219 101.093" fill="#b52735"/><path d="m59.337 237.758c0-48.064 32.535-88.648 76.731-100.956-55.422 9.867-101.114 48.219-121.29 99.349l70.372 70.371c-16.056-18.419-25.813-42.466-25.813-68.764" fill="#6da74b"/><path clip-rule="evenodd" d="m209.473 203.292 7.444-.313-5.646 4.864 2.6 6.984-6.371-3.867-5.839 4.631 1.709-7.253-6.209-4.123 7.427-.618 2.002-7.177zm1.15 27.237 5.204-5.334-.774 7.413 6.682 3.298-7.286 1.559-1.075 7.374-3.732-6.451-7.346 1.257 4.982-5.543-3.466-6.597zm-7.401 25.125 6.261-1.789-3.801 5.288 3.636 5.401-6.203-1.981-4.013 5.128-.033-6.512-6.117-2.233 6.184-2.044.233-6.507zm-34.268-84.116 6.475.694-5.509 3.472 1.34 6.372-5.003-4.166-5.647 3.244 2.416-6.047-4.83-4.368 6.498.43 2.66-5.943zm-25.518 2.246 5.389-1.413-3.349 4.45 3.009 4.69-5.269-1.811-3.528 4.311.092-5.571-5.19-2.023 5.327-1.633.321-5.561zm19.302 111.791 5.39 1.409-5.103 2.24.327 5.559-3.705-4.16-5.189 2.029 2.813-4.81-3.534-4.308 5.444 1.189 3.005-4.692zm-21.081 10.931 5.402-1.368-3.388 4.423 2.971 4.714-5.254-1.856-3.565 4.282.14-5.569-5.173-2.068 5.34-1.587.368-5.56zm39.464-22.623 2.713-5.92 1.544 6.325 6.468.751-5.539 3.425 1.285 6.383-4.968-4.212-5.674 3.196 2.469-6.025-4.792-4.41zm13.64-90.505 5.782 4.701-7.452-.101-2.684 6.951-2.206-7.118-7.441-.405 6.088-4.297-1.916-7.203 5.97 4.463 6.258-4.048z" fill="#b52735" fill-rule="evenodd"/><path clip-rule="evenodd" d="m296.823 116.531c10.96.048 15.719-4.826 15.719-13.253 0-3.241-.189-6.529-.189-11.359s-3.023-20.283-21.211-24.422c-18.19-4.14-50.243-9.523-68.179-10.981v75.699a171.997 171.997 0 0 1 48.578 27.333c6.783 1.195 13.362 2.517 19.034 3.937 12.485 3.125 21.968-.562 21.968-14.957v-10.792c-.001-4.573-.952-14.526-15.72-21.205m-10.227 21.204c0 3.38-1.311 5.548-5.681 4.544-5.736-1.317-31.627-5.679-31.627-5.679v-19.88s24.568 3.989 29.732 5.112c5.166 1.123 7.576 3.786 7.576 7.005zm0-38.433c0 3.38-1.311 5.547-5.681 4.544-5.736-1.317-31.627-5.68-31.627-5.68v-19.122s24.568 3.989 29.732 5.112c5.166 1.122 7.576 3.785 7.576 7.004zm-130.905 9.256s-16.998-39.477-22.916-54.336c-15.543.688-29.704 2.637-37.119 3.408 0 11.675-.089 52.162-.145 76.607-10.137.329-43.499 6.244-54.209 8.913v-76.109l-25.946 6.248v95.419c9.856-2.874 24.816-6.328 41.204-9.253 11.807-9.432 24.862-17.363 38.906-23.459.011-.071.027-.131.041-.199v.183c7.608-3.3 15.5-6.068 23.631-8.254v-40.183l14.862 36.916a171.33 171.33 0 0 1 12.17-1.695c.481-.049.964-.093 1.447-.137 5.393-.508 10.85-.799 16.377-.799 3.898 0 7.76.151 11.594.407l13.435-35.26v36.675a171.15 171.15 0 0 1 25.757 5.788v-73.512c-7.478-1.186-24.668-2.13-38.606-2.237-6.477 17.603-20.483 54.869-20.483 54.869" fill-rule="evenodd"/><path d="m369.283 0v444.406" fill="none"/></svg>